{
  "accessors": [
    {
      "bufferView": 2,
      "componentType": 5126,
      "count": 57407,
      "max": [
        0.2684749960899353,
        -0.003828000044450164,
        -0.0725260004401207
      ],
      "min": [
        -0.29215899109840393,
        -0.2572230100631714,
        -0.24146400392055511
      ],
      "type": "VEC3"
    },
    {
      "bufferView": 2,
      "byteOffset": 688884,
      "componentType": 5126,
      "count": 57407,
      "max": [
        0.9999834299087524,
        0.9999999403953552,
        0.9999963641166687
      ],
      "min": [
        -0.9999978542327881,
        -0.9999963045120239,
        -0.9999997019767761
      ],
      "type": "VEC3"
    },
    {
      "bufferView": 3,
      "componentType": 5126,
      "count": 57407,
      "max": [
        1.0,
        1.0,
        1.0,
        1.0
      ],
      "min": [
        -1.0,
        -1.0,
        -1.0,
        -1.0
      ],
      "type": "VEC4"
    },
    {
      "bufferView": 1,
      "componentType": 5126,
      "count": 57407,
      "max": [
        0.9950000047683716,
        0.8582050204277039
      ],
      "min": [
        0.004999999888241291,
        0.004999999888241291
      ],
      "type": "VEC2"
    },
    {
      "bufferView": 0,
      "componentType": 5125,
      "count": 299916,
      "type": "SCALAR"
    }
  ],
  "asset": {
    "extras": {
      "author": "grafi (https://sketchfab.com/zdenkoroman)",
      "license": "CC-BY-4.0 (http://creativecommons.org/licenses/by/4.0/)",
      "source": "https://sketchfab.com/3d-models/radio-philips-retro-3d-scan-267f2d35e20b42098ec9baaa5e18caeb",
      "title": "Radio Philips Retro 3D Scan"
    },
    "generator": "Sketchfab-12.68.0",
    "version": "2.0"
  },
  "bufferViews": [
    {
      "buffer": 0,
      "byteLength": 1199664,
      "name": "floatBufferViews",
      "target": 34963
    },
    {
      "buffer": 0,
      "byteLength": 459256,
      "byteOffset": 1199664,
      "byteStride": 8,
      "name": "floatBufferViews",
      "target": 34962
    },
    {
      "buffer": 0,
      "byteLength": 1377768,
      "byteOffset": 1658920,
      "byteStride": 12,
      "name": "floatBufferViews",
      "target": 34962
    },
    {
      "buffer": 0,
      "byteLength": 918512,
      "byteOffset": 3036688,
      "byteStride": 16,
      "name": "floatBufferViews",
      "target": 34962
    }
  ],
  "buffers": [
    {
      "byteLength": 3955200,
      "uri": "radio_phillips.bin"
    }
  ],
  "images": [
    {
      "uri": "textures/radio_low_baseColor.jpeg"
    },
    {
      "uri": "textures/radio_low_metallicRoughness.png"
    },
    {
      "uri": "textures/radio_low_normal.jpeg"
    }
  ],
  "materials": [
    {
      "doubleSided": true,
      "name": "radio_low",
      "normalTexture": {
        "index": 2
      },
      "occlusionTexture": {
        "index": 1
      },
      "pbrMetallicRoughness": {
        "baseColorTexture": {
          "index": 0
        },
        "metallicRoughnessTexture": {
          "index": 1
        },
        "roughnessFactor": 0.7617316941186485
      }
    }
  ],
  "meshes": [
    {
      "name": "Object_0",
      "primitives": [
        {
          "attributes": {
            "NORMAL": 1,
            "POSITION": 0,
            "TANGENT": 2,
            "TEXCOORD_0": 3
          },
          "indices": 4,
          "material": 0,
          "mode": 4
        }
      ]
    }
  ],
  "nodes": [
    {
      "children": [
        1
      ],
      "matrix": [
        1.0,
        0.0,
        0.0,
        0.0,
        0.0,
        -1.0,
        0.0,
        0.0,
        0.0,
        0.0,
        -1.0,
        0.0,
        0.0,
        -0.2875204086303711,
        -0.026469467207789484,
        1.0
      ],
      "name": "Sketchfab_model"
    },
    {
      "children": [
        2
      ],
      "name": "radio_low.obj.cleaner.materialmerger.gles"
    },
    {
      "mesh": 0,
      "name": "Object_2"
    }
  ],
  "samplers": [
    {
      "magFilter": 9729,
      "minFilter": 9987,
      "wrapS": 10497,
      "wrapT": 10497
    }
  ],
  "scene": 0,
  "scenes": [
    {
      "name": "Sketchfab_Scene",
      "nodes": [
        0
      ]
    }
  ],
  "textures": [
    {
      "sampler": 0,
      "source": 0
    },
    {
      "sampler": 0,
      "source": 1
    },
    {
      "sampler": 0,
      "source": 2
    }
  ]
}
